<?xml version="1.0" encoding="UTF-8" standalone="no"?><!DOCTYPE svg PUBLIC "-//W3C//DTD SVG 1.1//EN" "http://www.w3.org/Graphics/SVG/1.1/DTD/svg11.dtd"><svg width="100%" height="100%" viewBox="0 0 292 292" version="1.1" xmlns="http://www.w3.org/2000/svg" xmlns:xlink="http://www.w3.org/1999/xlink" xml:space="preserve" xmlns:serif="http://www.serif.com/" style="fill-rule:evenodd;clip-rule:evenodd;stroke-linejoin:round;stroke-miterlimit:2;"><clipPath id="_clip1"><path d="M-391.157,112.858c-15.598,-42.916 -12.423,-80.827 12.771,-100.165c21.3,-16.35 54.347,-16.359 90.583,-3.164c-9.36,6.084 -18.677,12.827 -27.842,20.199l-0.385,-0.089c-17.119,-3.887 -32.57,-4.269 -43.094,3.809c-10.525,8.078 -12.705,21.995 -11.367,37.994c0.302,3.62 0.814,7.33 1.529,11.117c2.082,11.021 5.889,22.693 11.287,34.674c7.537,-10.413 16.013,-20.757 25.389,-30.859c15.914,-17.148 33.021,-32.093 50.44,-44.511c8.965,-6.392 18.013,-12.114 27.023,-17.123c48.501,-26.963 95.923,-33.263 123.564,-12.047c31.504,24.182 28.577,77.405 -2.431,133.14c6.211,11.164 11.295,22.227 15.202,32.975c15.597,42.916 12.423,80.827 -12.771,100.166c-21.3,16.349 -54.348,16.358 -90.583,3.163c9.359,-6.083 18.677,-12.827 27.841,-20.198l0.386,0.088c17.118,3.887 32.57,4.27 43.094,-3.808c10.525,-8.079 12.705,-21.995 11.367,-37.995c-0.303,-3.619 -0.814,-7.329 -1.53,-11.116c-2.081,-11.022 -5.888,-22.693 -11.286,-34.675c-7.537,10.414 -16.014,20.758 -25.389,30.86c-15.915,17.148 -33.021,32.093 -50.44,44.511c-8.965,6.391 -18.013,12.114 -27.024,17.123c-48.501,26.963 -95.922,33.263 -123.563,12.047c-31.504,-24.182 -28.578,-77.405 2.43,-133.141c-6.21,-11.163 -11.295,-22.226 -15.201,-32.975Zm136.334,-55.633c-18.798,12.36 -37.446,28.138 -54.642,46.666c-12.709,13.694 -23.656,27.847 -32.637,41.942c5.617,8.816 12.003,17.653 19.108,26.388c4.255,5.231 8.769,10.425 13.529,15.554c9.244,9.96 18.907,19.125 28.788,27.392c-9.412,5.528 -18.788,10.007 -27.926,13.295c-8.105,-7.19 -16.032,-14.925 -23.683,-23.169c-1.245,-1.342 -2.475,-2.688 -3.688,-4.037c-7.922,-8.814 -15.165,-17.792 -21.701,-26.823c-7.253,16.098 -11.633,31.637 -12.816,45.791c-1.338,16 0.842,29.916 11.367,37.995c10.524,8.078 25.975,7.695 43.094,3.808c10.994,-2.496 22.495,-6.625 34.184,-12.223c8.946,-4.285 18.002,-9.43 27.023,-15.362c18.798,-12.361 37.447,-28.138 54.642,-46.667c12.71,-13.694 23.656,-27.847 32.638,-41.942c-5.617,-8.815 -12.003,-17.653 -19.108,-26.387c-4.256,-5.231 -8.769,-10.425 -13.53,-15.555c-9.243,-9.96 -18.906,-19.125 -28.787,-27.391c9.412,-5.528 18.788,-10.007 27.926,-13.296c8.105,7.19 16.032,14.925 23.683,23.17c1.245,1.341 2.474,2.687 3.688,4.037c7.922,8.813 15.165,17.792 21.701,26.822c7.252,-16.098 11.632,-31.636 12.816,-45.791c1.338,-15.999 -0.842,-29.916 -11.367,-37.994c-10.524,-8.078 -25.976,-7.696 -43.094,-3.809c-10.994,2.497 -22.496,6.626 -34.184,12.224c-8.946,4.284 -18.002,9.43 -27.024,15.362Z"/></clipPath><g clip-path="url(#_clip1)"></g><path d="M9.499,112.858c-15.598,-42.916 -12.423,-80.827 12.771,-100.165c21.3,-16.35 54.347,-16.359 90.583,-3.164c-9.36,6.084 -18.677,12.827 -27.842,20.199l-0.385,-0.089c-17.119,-3.887 -32.57,-4.269 -43.094,3.809c-10.525,8.078 -12.705,21.995 -11.367,37.994c0.302,3.62 0.814,7.33 1.529,11.117c2.082,11.021 5.889,22.693 11.287,34.674c7.537,-10.413 16.013,-20.757 25.389,-30.859c15.914,-17.148 33.021,-32.093 50.44,-44.511c8.965,-6.392 18.013,-12.114 27.023,-17.123c48.501,-26.963 95.923,-33.263 123.564,-12.047c31.504,24.182 28.577,77.405 -2.431,133.14c6.211,11.164 11.295,22.227 15.202,32.975c15.597,42.916 12.423,80.827 -12.771,100.166c-21.3,16.349 -54.348,16.358 -90.583,3.163c9.359,-6.083 18.677,-12.827 27.841,-20.198l0.386,0.088c17.118,3.887 32.57,4.27 43.094,-3.808c10.525,-8.079 12.705,-21.995 11.367,-37.995c-0.303,-3.619 -0.814,-7.329 -1.53,-11.116c-2.081,-11.022 -5.888,-22.693 -11.286,-34.675c-7.537,10.414 -16.014,20.758 -25.389,30.86c-15.915,17.148 -33.021,32.093 -50.44,44.511c-8.965,6.391 -18.013,12.114 -27.024,17.123c-48.501,26.963 -95.922,33.263 -123.563,12.047c-31.504,-24.182 -28.578,-77.405 2.43,-133.141c-6.21,-11.163 -11.295,-22.226 -15.201,-32.975Zm136.334,-55.633c-18.798,12.36 -37.446,28.138 -54.642,46.666c-12.709,13.694 -23.656,27.847 -32.637,41.942c5.617,8.816 12.003,17.653 19.108,26.388c4.255,5.231 8.769,10.425 13.529,15.554c9.244,9.96 18.907,19.125 28.788,27.392c-9.412,5.528 -18.788,10.007 -27.926,13.295c-8.105,-7.19 -16.032,-14.925 -23.683,-23.169c-1.245,-1.342 -2.475,-2.688 -3.688,-4.037c-7.922,-8.814 -15.165,-17.792 -21.701,-26.823c-7.253,16.098 -11.633,31.637 -12.816,45.791c-1.338,16 0.842,29.916 11.367,37.995c10.524,8.078 25.975,7.695 43.094,3.808c10.994,-2.496 22.495,-6.625 34.184,-12.223c8.946,-4.285 18.002,-9.43 27.023,-15.362c18.798,-12.361 37.447,-28.138 54.642,-46.667c12.71,-13.694 23.656,-27.847 32.638,-41.942c-5.617,-8.815 -12.003,-17.653 -19.108,-26.387c-4.256,-5.231 -8.769,-10.425 -13.53,-15.555c-9.243,-9.96 -18.907,-19.125 -28.787,-27.391c9.412,-5.528 18.788,-10.007 27.926,-13.296c8.105,7.19 16.032,14.925 23.683,23.17c1.245,1.341 2.474,2.687 3.688,4.037c7.922,8.813 15.165,17.792 21.701,26.822c7.252,-16.098 11.632,-31.636 12.816,-45.791c1.338,-15.999 -0.842,-29.916 -11.367,-37.994c-10.524,-8.078 -25.976,-7.696 -43.094,-3.809c-10.994,2.497 -22.496,6.626 -34.184,12.224c-8.946,4.284 -18.002,9.43 -27.024,15.362Z"/><path d="M361.883,112.858c-15.598,-42.916 -12.423,-80.827 12.771,-100.165c21.3,-16.35 54.347,-16.359 90.583,-3.164c-9.359,6.084 -18.677,12.827 -27.842,20.199l-0.385,-0.089c-17.118,-3.887 -32.57,-4.269 -43.094,3.809c-10.525,8.078 -12.705,21.995 -11.367,37.994c0.302,3.62 0.814,7.33 1.529,11.117c2.082,11.021 5.889,22.693 11.287,34.674c7.537,-10.413 16.014,-20.757 25.389,-30.859c15.915,-17.148 33.021,-32.093 50.44,-44.511c8.965,-6.392 18.013,-12.114 27.024,-17.123c48.5,-26.963 95.922,-33.263 123.563,-12.047c31.504,24.182 28.577,77.405 -2.43,133.14c6.21,11.164 11.294,22.227 15.201,32.975c15.598,42.916 12.423,80.827 -12.771,100.166c-21.3,16.349 -54.347,16.358 -90.583,3.163c9.359,-6.083 18.677,-12.827 27.842,-20.198l0.385,0.088c17.118,3.887 32.57,4.27 43.094,-3.808c10.525,-8.079 12.705,-21.995 11.367,-37.995c-0.302,-3.619 -0.814,-7.329 -1.529,-11.116c-2.082,-11.022 -5.889,-22.693 -11.287,-34.675c-7.537,10.414 -16.014,20.758 -25.389,30.86c-15.915,17.148 -33.021,32.093 -50.44,44.511c-8.965,6.391 -18.013,12.114 -27.023,17.123c-48.501,26.963 -95.923,33.263 -123.564,12.047c-31.504,-24.182 -28.577,-77.405 2.43,-133.141c-6.21,-11.163 -11.294,-22.226 -15.201,-32.975Zm136.335,-55.633c-18.799,12.36 -37.447,28.138 -54.643,46.666c-12.709,13.694 -23.656,27.847 -32.637,41.942c5.617,8.816 12.003,17.653 19.108,26.388c4.255,5.231 8.769,10.425 13.529,15.554c9.244,9.96 18.907,19.125 28.788,27.392c-9.412,5.528 -18.788,10.007 -27.926,13.295c-8.105,-7.19 -16.032,-14.925 -23.683,-23.169c-1.245,-1.342 -2.474,-2.688 -3.688,-4.037c-7.922,-8.814 -15.165,-17.792 -21.701,-26.823c-7.253,16.098 -11.633,31.637 -12.816,45.791c-1.338,16 0.842,29.916 11.367,37.995c10.524,8.078 25.976,7.695 43.094,3.808c10.994,-2.496 22.495,-6.625 34.184,-12.223c8.946,-4.285 18.002,-9.43 27.024,-15.362c18.798,-12.361 37.446,-28.138 54.642,-46.667c12.709,-13.694 23.656,-27.847 32.637,-41.942c-5.617,-8.815 -12.003,-17.653 -19.108,-26.387c-4.255,-5.231 -8.769,-10.425 -13.529,-15.555c-9.244,-9.96 -18.907,-19.125 -28.788,-27.391c9.412,-5.528 18.788,-10.007 27.926,-13.296c8.105,7.19 16.032,14.925 23.683,23.17c1.245,1.341 2.474,2.687 3.688,4.037c7.922,8.813 15.165,17.792 21.701,26.822c7.253,-16.098 11.633,-31.636 12.816,-45.791c1.338,-15.999 -0.842,-29.916 -11.367,-37.994c-10.524,-8.078 -25.976,-7.696 -43.094,-3.809c-10.994,2.497 -22.495,6.626 -34.184,12.224c-8.946,4.284 -18.002,9.43 -27.023,15.362Z" style="fill:#fff;"/></svg>