<?xml version="1.0" encoding="UTF-8" standalone="no"?><!DOCTYPE svg PUBLIC "-//W3C//DTD SVG 1.1//EN" "http://www.w3.org/Graphics/SVG/1.1/DTD/svg11.dtd"><svg width="100%" height="100%" viewBox="0 0 1722 1361" version="1.1" xmlns="http://www.w3.org/2000/svg" xmlns:xlink="http://www.w3.org/1999/xlink" xml:space="preserve" xmlns:serif="http://www.serif.com/" style="fill-rule:evenodd;clip-rule:evenodd;stroke-linejoin:round;stroke-miterlimit:2;"><path d="M860.998,969.079c-23.794,25.432 -48.915,50.625 -75.281,75.392l-3.986,3.732c-289.816,270.473 -620.253,387.441 -739.015,261.008c-107.121,-114.038 -5.846,-387.572 226.416,-639.952c-218.313,-246.209 -310.923,-507.517 -206.858,-618.303c117.22,-124.79 440.649,-12.462 727.7,250.546c5.112,4.684 10.213,9.416 15.301,14.195c19.249,18.081 37.834,36.389 55.723,54.852c17.89,-18.463 36.474,-36.771 55.723,-54.852c5.088,-4.779 10.189,-9.511 15.301,-14.195c287.051,-263.008 610.481,-375.336 727.701,-250.546c104.064,110.786 11.455,372.094 -206.859,618.303c232.263,252.38 333.538,525.914 226.417,639.952c-118.763,126.433 -449.199,9.465 -739.015,-261.008l-3.986,-3.732c-26.367,-24.767 -51.487,-49.96 -75.282,-75.392Zm0,-172.098c10.532,-14.238 20.46,-28.443 29.762,-42.558c35.015,-53.129 33.84,-122.3 -2.959,-174.21c-8.465,-12.074 -17.421,-24.153 -26.803,-36.236c-10.838,13.96 -21.109,27.914 -30.79,41.807c-33.924,48.666 -35.047,113.016 -2.841,162.835c10.442,15.999 21.647,32.159 33.631,48.362Zm72.951,88.357c20.39,22.294 42.155,44.376 65.198,66.021l2.967,2.778c215.76,201.36 461.76,288.439 550.175,194.313c79.748,-84.898 4.352,-288.536 -168.56,-476.425c162.528,-183.295 231.472,-377.831 153.999,-460.308c-87.266,-92.902 -328.05,-9.278 -541.75,186.524c-3.806,3.487 -7.604,7.01 -11.392,10.568c-16.336,15.345 -32.03,30.91 -47.047,46.615c16.305,19.478 31.81,39.003 46.481,58.496c66.225,88.286 68.018,209.188 4.442,299.399c-16.889,23.942 -35.085,47.996 -54.513,72.019Zm-145.902,-0c-16.141,-19.96 -31.433,-39.942 -45.837,-59.858c-69.95,-97.133 -67.951,-228.637 4.918,-323.599c11.932,-15.485 24.379,-30.986 37.33,-46.457c-15.017,-15.705 -30.711,-31.27 -47.048,-46.615c-3.788,-3.558 -7.585,-7.081 -11.391,-10.568c-213.701,-195.802 -454.484,-279.426 -541.751,-186.524c-77.473,82.477 -8.528,277.013 154,460.308c-172.913,187.889 -248.309,391.527 -168.561,476.425c88.416,94.126 334.416,7.047 550.175,-194.313l2.967,-2.778c23.044,-21.645 44.808,-43.727 65.198,-66.021Z"/></svg>